PathFileType	4	(X/Y/Z)	C:\Motion Data\9999\Fregly Locomotion Course\Processed\9999bj_kick4.trc
DataRate	CameraRate	NumFrames	NumMarkers	Units	OrigDataRate	OrigDataStartFrame	OrigNumFrames
200.00	200.00	       4	35	mm	200.00	1	       292
Frame#	Time	R_Heel			R_Midfoot_Superior			R_Midfoot_Lateral			R_Toe			L_Heel			L_Midfoot_Superior			L_Midfoot_Lateral			L_Toe			R_Shank_Superior			R_Shank_Inferior			R_Shank_Lateral			R_Shank Posterior			L_Shank_Superior			L_Shank_Inferior			L_Shank_Lateral			L_Shank_Posterior			R_Patella			L_Patella			R_Thigh_Superior			R_Thigh_Inferior			R_Thigh_Lateral			L_Thigh_Superior			L_Thigh_Inferior			L_Thigh_Lateral			R_Asis			L_Asis			Sacral			R_Shoulder			L_Shoulder			Back			R_Elbow			L_Elbow			R_Wrist			L_Wrist			Ball			
		X1	Y1	Z1	X2	Y2	Z2	X3	Y3	Z3	X4	Y4	Z4	X5	Y5	Z5	X6	Y6	Z6	X7	Y7	Z7	X8	Y8	Z8	X9	Y9	Z9	X10	Y10	Z10	X11	Y11	Z11	X12	Y12	Z12	X13	Y13	Z13	X14	Y14	Z14	X15	Y15	Z15	X16	Y16	Z16	X17	Y17	Z17	X18	Y18	Z18	X19	Y19	Z19	X20	Y20	Z20	X21	Y21	Z21	X22	Y22	Z22	X23	Y23	Z23	X24	Y24	Z24	X25	Y25	Z25	X26	Y26	Z26	X27	Y27	Z27	X28	Y28	Z28	X29	Y29	Z29	X30	Y30	Z30	X31	Y31	Z31	X32	Y32	Z32	X33	Y33	Z33	X34	Y34	Z34	X35	Y35	Z35

1	   0.000	 -598.94561999999996	   52.13240000000000	 -100.93809000000000	 -476.51562999999999	   88.98509000000000	   21.33965000000000	 -542.40062999999998	   30.21467000000000	   35.85159000000000	 -400.14461999999997	   45.71141000000000	   88.57187999999999	 -918.35730000000001	   47.83897000000000	 -337.77206000000001	 -737.76207999999997	   93.03664000000001	 -333.57181000000003	 -786.73987000000000	   28.87904000000000	 -392.31732000000000	 -638.95898000000000	   59.20262000000000	 -323.81778000000003	 -467.73941000000002	  390.64215000000002	   49.92752000000000	 -495.23250999999999	  234.68360999999999	   18.08849000000000	 -563.53137000000004	  316.33505000000002	   49.73022000000000	 -581.84131000000002	  387.31414999999998	  -40.36077000000000	 -645.89428999999996	  342.60068000000001	 -304.59665000000001	 -728.98895000000005	  206.60874999999999	 -323.14447000000001	 -709.43744000000004	  310.89834999999999	 -398.28714000000002	 -826.61383000000001	  222.45534000000001	 -365.83132999999998	 -432.00992000000002	  506.72681000000000	   71.75928000000000	 -571.97326999999996	  424.12148999999999	 -292.92266999999998	 -525.80847000000006	  718.59644000000003	   34.28046000000000	 -485.45218000000000	  638.86865000000000	   49.55651000000000	 -602.10650999999996	  644.71496999999999	   36.15591000000000	 -461.49576000000002	  670.34369000000004	 -283.48752000000002	 -507.61532999999997	  553.96906000000001	 -277.98950000000002	 -549.69672000000003	  621.60808999999995	 -360.98016000000001	 -600.98253999999997	  908.04602000000000	  -50.69654000000000	 -446.26343000000003	  893.97619999999995	 -262.63287000000003	 -660.05151000000001	  979.86194000000000	 -252.70230000000001	 -621.86077999999998	 1325.76378999999997	   29.06368000000000	 -360.61257999999998	 1369.46069000000011	 -245.99334999999999	 -501.74329000000000	 1409.66832999999997	 -146.84602000000001	 -781.48242000000005	 1063.08411000000001	  -30.41392000000000	 -268.57922000000002	 1142.12292000000002	 -443.16644000000002	 -698.85522000000003	  845.86487000000000	  103.18098000000001	  -64.27936000000000	  968.13598999999999	 -422.01952999999997	  488.85135000000002	  217.06936999999999	  476.12427000000002
2	   0.005	 -598.96118000000001	   52.13117000000000	 -100.71030000000000	 -476.49608999999998	   89.03439000000000	   21.33828000000000	 -542.61510999999996	   30.40530000000000	   35.75114000000000	 -400.02999999999997	   45.86098000000000	   88.74854000000001	 -918.43065999999999	   47.91573000000000	 -337.73910999999998	 -737.66552999999999	   93.13318000000000	 -333.59485000000001	 -786.70203000000004	   29.00113000000000	 -392.17532000000000	 -638.89398000000006	   59.13568000000000	 -323.75607000000002	 -464.99509000000000	  389.68108999999998	   51.71904000000000	 -494.10547000000003	  234.10873000000001	   18.90495000000000	 -561.99505999999997	  316.37894000000000	   51.28733000000000	 -579.49860000000001	  387.49743999999998	  -38.78316000000000	 -644.49657999999999	  341.89548000000002	 -304.70197000000002	 -728.87543000000005	  206.32283000000001	 -323.06760000000003	 -709.07599000000005	  310.86313000000001	 -397.79888999999997	 -826.29534999999998	  222.68431000000001	 -365.61664000000002	 -429.71102999999999	  505.83983999999998	   73.84679000000000	 -570.66729999999995	  423.39206000000001	 -291.54651000000001	 -523.23468000000003	  718.26385000000005	   36.44268000000000	 -482.78478999999999	  638.08136000000002	   52.18450000000000	 -599.09813999999994	  644.37225000000001	   38.59853000000000	 -459.29268999999999	  668.89409999999998	 -281.46877999999998	 -505.73444000000001	  552.96600000000001	 -275.76224000000002	 -547.90552000000002	  621.29840000000002	 -359.65539999999999	 -597.95245000000000	  907.54993000000002	  -48.00754000000000	 -443.04998999999998	  892.82213999999999	 -259.93036000000001	 -657.31281000000001	  979.28497000000004	 -250.69719000000001	 -617.77666999999997	 1325.07141000000001	   31.52160000000000	 -355.85863999999998	 1368.09972999999991	 -243.80617000000001	 -498.28787000000000	 1408.07909999999993	 -143.43335999999999	 -778.41620000000000	 1063.11168999999995	  -28.83926000000000	 -262.23227000000003	 1144.15050999999994	 -441.90753000000001	 -698.18926999999996	  845.14948000000004	  103.07970000000000	  -57.87238000000000	  970.96380999999997	 -422.97179999999997	  488.86905000000002	  217.04236000000000	  476.08389000000000
3	   0.010	 -598.90204000000006	   52.30592000000000	 -100.62063999999999	 -476.51736000000000	   89.07549000000000	   21.34205000000000	 -542.60857999999996	   30.43062000000000	   35.45731000000000	 -399.99050999999997	   45.86340000000000	   88.66692000000000	 -918.41016000000002	   48.05295000000000	 -337.77771000000001	 -737.53943000000004	   93.06529000000000	 -333.48563000000001	 -786.49432000000002	   28.75838000000000	 -392.10991999999999	 -638.89398000000006	   59.13568000000000	 -323.75607000000002	 -463.92608999999999	  388.52148000000000	   52.76093000000000	 -493.35779000000002	  233.61400000000000	   19.46050000000000	 -560.41272000000004	  315.99529999999999	   53.07612000000000	 -577.86212000000000	  387.92687999999998	  -35.91917000000000	 -643.44946000000004	  341.94119000000001	 -303.15093999999999	 -728.36072000000001	  205.84612000000001	 -322.86324999999999	 -707.91063999999994	  310.43743999999998	 -396.47194999999999	 -826.02782999999999	  222.73858999999999	 -364.68450999999999	 -426.86801000000003	  504.87518000000000	   76.36421000000000	 -569.37114999999994	  422.24419999999998	 -290.16516000000001	 -520.62121999999999	  717.32135000000005	   38.79255000000000	 -479.82562000000001	  637.65643000000000	   53.98360000000000	 -596.43158000000005	  643.81384000000003	   41.59237000000000	 -457.27886999999998	  667.44323999999995	 -280.29611000000000	 -504.06961000000001	  551.53461000000004	 -275.14240000000001	 -545.96569999999997	  619.98491999999999	 -358.45904999999999	 -594.64562999999998	  906.86815999999999	  -46.18979000000000	 -440.19501000000002	  890.99614999999994	 -257.73862000000003	 -654.15625000000000	  978.99114999999995	 -248.13318000000001	 -613.35235999999998	 1323.87719999999990	   34.62571000000000	 -352.03368999999998	 1366.37536999999998	 -238.92367999999999	 -493.03708000000000	 1407.48461999999995	 -141.66191000000001	 -775.64282000000003	 1063.09155000000010	  -27.45006000000000	 -256.67529000000002	 1145.01098999999999	 -440.16424999999998	 -695.89197000000001	  844.09173999999996	  104.46593000000000	  -51.05415000000000	  971.96007999999995	 -422.57886000000002	  488.88657000000001	  217.01472000000001	  476.05324999999999
4	   0.015	 -598.81146000000001	   52.31751000000000	 -100.94556000000000	 -476.34735000000001	   89.04361000000000	   21.60230000000000	 -542.44457999999997	   30.44894000000000	   35.74868000000000	 -400.05504999999999	   45.91040000000000	   88.67344000000000	 -918.33672999999999	   47.97620000000000	 -337.81063999999998	 -737.53632000000005	   92.91472000000000	 -333.44391000000002	 -786.51922999999999	   28.71656000000000	 -392.50815000000000	 -638.92260999999996	   59.15107000000000	 -323.85158999999999	 -461.51056000000000	  387.87024000000002	   55.59419000000000	 -492.39697000000001	  232.98579000000001	   20.99347000000000	 -559.20043999999996	  315.76607999999999	   53.93600000000000	 -575.25043000000005	  389.55300999999997	  -34.01242000000000	 -643.86779999999999	  339.81792999999999	 -303.04367000000002	 -728.14948000000004	  205.74665999999999	 -322.87839000000002	 -707.17034999999998	  310.59070000000003	 -395.94653000000000	 -825.36785999999995	  223.12456000000000	 -364.28167999999999	 -424.92507999999998	  503.79595999999998	   79.04765000000000	 -568.21624999999995	  421.29327000000001	 -289.22919000000002	 -517.99408000000005	  716.41003000000001	   40.43958000000000	 -477.34775000000002	  637.01324000000000	   57.29391000000000	 -594.13153000000000	  643.35717999999997	   43.95614000000000	 -455.56801999999999	  665.59618999999998	 -277.82393999999999	 -502.55721999999997	  550.58105000000000	 -273.82373000000001	 -543.91656000000000	  619.05200000000002	 -355.75754000000001	 -591.58856000000003	  905.55127000000005	  -43.42363000000000	 -437.20220999999998	  889.43395999999996	 -255.59363999999999	 -650.21167000000003	  978.75878999999998	 -245.59398999999999	 -608.67352000000005	 1323.40294999999992	   36.91674000000000	 -345.62957999999998	 1365.47570999999994	 -236.05951999999999	 -488.19223000000000	 1406.88965000000007	 -138.31287000000000	 -772.84607000000005	 1062.80969000000005	  -26.51992000000000	 -250.34619000000001	 1146.12415000000010	 -438.25725999999997	 -694.56408999999996	  843.84771999999998	  107.24724999999999	  -44.36698000000000	  974.22118999999998	 -423.05353000000002	  488.84003000000001	  216.97703999999999	  476.04885999999999
